# xmcd CD database file
#
# Track frame offsets:
#	150
#	22748
#	47560
#
# Disc length: 946 seconds
#
# Revision: 0
# Processed by: cddbd v1.5PL3 Copyright (c) Steve Scherf et al.
# Submitted via: CDex 1.51
#
DISCID=1503b003
DTITLE=maschera - ALICE
DYEAR=1999
DGENRE=Other
TTITLE0=Alice
TTITLE1=八月の憂鬱
TTITLE2=Alice -in modern times-
EXTD=YEAR: 1999
EXTT0=
EXTT1=
EXTT2=
PLAYORDER=
